<svg xmlns="http://www.w3.org/2000/svg" viewBox="0 0 512 512">
  <defs>
    <linearGradient id="g" x1="0" x2="1" y1="0" y2="1">
      <stop offset="0" stop-color="#fda4af"/>
      <stop offset="1" stop-color="#ec4899"/>
    </linearGradient>
  </defs>
  <rect width="512" height="512" rx="128" fill="url(#g)"/>
  <g fill="#fff" transform="translate(100,110)">
    <path d="M70 180c-38 0-70-32-70-70s32-70 70-70 70 32 70 70-32 70-70 70zm0-40c17 0 30-13 30-30s-13-30-30-30-30 13-30 30 13 30 30 30z"/>
    <path d="M312 180c-38 0-70-32-70-70s32-70 70-70 70 32 70 70-32 70-70 70zm0-40c17 0 30-13 30-30s-13-30-30-30-30 13-30 30 13 30 30 30z"/>
    <path d="M120 170l192-100c9-5 21-2 26 7s2 21-7 26L139 203c-9 5-21 2-26-7s-2-21 7-26z"/>
    <path d="M120 190l192 100c9 5 21 2 26-7s2-21-7-26L139 157c-9-5-21-2-26 7s-2 21 7 26z"/>
  </g>
</svg>

